PathFileType	4	(X/Y/Z)	s02c0201.trc
DataRate	CameraRate	NumFrames	NumMarkers	Units	OrigDataRate	OrigDataStartFrame	OrigNumFrames
200	200	5	51	mm	200	750	2000
Frame#	Time	racr			lacr			c7			jug			rlel			rdr			llel			ldr			s2			lic			ric			lasi			rasi			rpsi			lpsi			rgt			lgt			rth1			rth2			rth3			rth4			rlfc			rmfc			rsh1			rsh2			rsh3			rsh4			rlmal			rmmal			rcal			rtoe			rmt5			rmt1			lth1			lth2			lth4			lth3			llfc			lmfc			lsh1			lsh2			lsh3			lsh4			llmal			lmmal			lcal			ltoe			lmt5			SBIKE			LBIKE			RBIKE			
		X1	Y1	Z1	X2	Y2	Z2	X3	Y3	Z3	X4	Y4	Z4	X5	Y5	Z5	X6	Y6	Z6	X7	Y7	Z7	X8	Y8	Z8	X9	Y9	Z9	X10	Y10	Z10	X11	Y11	Z11	X12	Y12	Z12	X13	Y13	Z13	X14	Y14	Z14	X15	Y15	Z15	X16	Y16	Z16	X17	Y17	Z17	X18	Y18	Z18	X19	Y19	Z19	X20	Y20	Z20	X21	Y21	Z21	X22	Y22	Z22	X23	Y23	Z23	X24	Y24	Z24	X25	Y25	Z25	X26	Y26	Z26	X27	Y27	Z27	X28	Y28	Z28	X29	Y29	Z29	X30	Y30	Z30	X31	Y31	Z31	X32	Y32	Z32	X33	Y33	Z33	X34	Y34	Z34	X35	Y35	Z35	X36	Y36	Z36	X37	Y37	Z37	X38	Y38	Z38	X39	Y39	Z39	X40	Y40	Z40	X41	Y41	Z41	X42	Y42	Z42	X43	Y43	Z43	X44	Y44	Z44	X45	Y45	Z45	X46	Y46	Z46	X47	Y47	Z47	X48	Y48	Z48	X49	Y49	Z49	X50	Y50	Z50	X51	Y51	Z51	
750	3.7500	579.909762	1239.300400	-214.515553	521.357428	1273.170251	-527.789045	527.839700	1298.917368	-376.200697	473.682474	1168.461186	-371.973525	550.462901	1010.026322	-69.734897	705.774254	884.589421	-123.725639	513.337057	999.412224	-620.016647	693.148570	890.293009	-530.667020	10.195471	1115.814677	-293.592523	121.480059	1135.960690	-445.261548	156.317910	1119.887765	-163.093942	164.030859	1106.832624	-425.759297	202.388155	1088.595765	-196.740646	44.795155	1165.935339	-242.203723	36.951300	1192.901916	-323.074356	120.998431	1020.022809	-127.764728	91.347453	1063.438617	-484.635110	194.395817	945.278705	-124.953968	256.259242	883.057135	-133.322801	284.199243	803.027578	-117.385672	280.484492	897.315761	-158.620972	327.107156	673.172183	-160.678723	308.933742	657.573523	-266.811938	298.095232	569.784954	-139.564445	286.033866	482.545385	-155.754606	237.599098	411.692519	-147.588800	296.709880	480.534420	-193.305189	182.298936	304.711967	-149.779016	194.689161	317.926257	-230.546383	98.254249	298.340755	-191.673791	331.613600	129.614536	-190.603003	234.026254	179.083224	-133.995305	262.854330	174.595428	-240.199242	221.811003	1027.081966	-501.188146	306.695608	1018.021632	-498.437243	318.577346	1047.788981	-479.078780	378.314684	965.668767	-505.923105	474.162892	925.351060	-492.085533	485.268763	897.170533	-380.444404	447.424585	830.666355	-506.670869	420.497931	749.943335	-490.282254	354.831087	688.017715	-494.070757	439.330427	741.287726	-454.732513	280.425737	597.771181	-481.396272	298.031789	594.117228	-402.838184	202.425013	560.826345	-444.348999	479.608439	484.127773	-440.672938	373.547542	485.203133	-505.709130	-164.818232	857.470214	-316.489608	32.843644	83.217150	-515.119251	32.995290	82.440587	-115.021390	
751	3.7550	580.133826	1238.106380	-216.657691	519.221937	1271.933553	-529.218383	526.877422	1297.723786	-378.069007	472.325743	1167.470824	-373.226363	550.529310	1009.779956	-70.320224	705.572845	884.288902	-123.612958	511.721960	998.069486	-620.542645	692.562277	890.290450	-530.747461	9.683254	1115.582487	-292.783778	121.067460	1135.488077	-444.740785	155.383173	1120.058023	-162.184210	163.907813	1106.647786	-425.320202	201.465671	1088.722269	-195.837283	43.915919	1166.279913	-241.441465	36.384483	1193.214661	-322.426145	120.542451	1020.110296	-126.841145	91.412700	1062.978809	-483.202455	194.964903	945.738005	-124.871704	257.825869	884.575583	-133.335609	286.895910	804.825092	-118.207136	282.017541	899.507202	-158.469435	331.050212	675.460445	-161.622399	311.970789	660.283346	-268.021831	299.946011	572.016688	-140.789032	285.149732	485.285424	-157.048730	235.156693	415.702154	-148.661521	295.901957	482.987046	-194.650640	176.382963	310.046637	-150.318691	189.342425	323.092937	-231.405266	92.476924	304.742346	-192.508556	323.194589	132.484216	-190.495580	226.251215	183.637351	-134.361210	255.597841	178.316816	-240.306284	221.409104	1024.809545	-500.770857	306.211159	1014.627315	-498.396606	318.591065	1044.276945	-479.293865	377.100727	961.342172	-506.128834	472.357425	919.688665	-492.657717	484.189927	891.555000	-381.091772	446.472740	824.191591	-506.866234	420.896087	743.037947	-490.649637	356.093964	680.253302	-494.079161	439.901216	734.682064	-455.116710	283.027987	589.180611	-480.703110	300.675263	585.658836	-402.177432	206.416211	549.106656	-444.440285	486.071638	483.564565	-441.218634	379.893017	480.393596	-506.183823	-164.936124	857.423852	-316.854958	32.842087	83.142048	-515.130151	32.994225	82.440625	-115.045384	
752	3.7600	580.408750	1236.877783	-218.626721	517.119574	1270.565569	-530.654986	525.941242	1296.497424	-379.871477	470.967410	1166.465054	-374.364578	550.474235	1009.424794	-70.975532	705.383206	884.027034	-123.446903	509.951627	996.604289	-620.673755	691.928103	890.147654	-530.700142	9.172137	1115.366749	-292.111023	120.719839	1134.821422	-444.184415	154.571929	1120.307670	-161.534422	163.819827	1106.323525	-424.868636	201.356718	1088.725382	-193.296139	43.209781	1166.459082	-240.811610	36.218957	1192.922533	-321.971162	120.118464	1020.136341	-125.951940	91.583034	1062.210826	-481.910713	195.598882	946.437896	-124.901052	259.415936	886.183893	-133.523060	289.988715	807.055398	-118.661316	283.554690	901.813935	-158.355179	335.017145	677.860525	-162.609989	315.241019	663.099628	-269.178473	301.920031	574.425837	-141.993315	284.141977	488.184425	-158.439067	232.870251	419.947115	-149.671097	295.116676	485.414858	-196.084976	170.821530	315.675819	-150.753156	184.398772	328.512177	-232.279380	86.857193	311.629397	-193.249196	315.033565	135.954496	-190.237209	218.712764	188.541768	-134.687375	249.149526	181.564203	-240.233117	222.481865	1022.765668	-501.160323	305.793887	1010.857575	-498.495468	318.657676	1040.377557	-479.467483	375.834811	956.527276	-506.417980	470.847810	912.994273	-493.069562	482.787006	885.204230	-381.857847	445.420712	816.734973	-507.390941	421.142779	735.184609	-490.849138	357.330545	671.467761	-493.985631	440.231878	727.458254	-455.381081	285.481310	579.987851	-479.724827	303.378051	576.418685	-401.320379	210.044226	536.722445	-443.732478	492.103783	482.417392	-442.229857	385.686658	475.075357	-506.754846	-164.902703	857.358195	-317.103357	32.842892	82.980356	-515.185585	32.981178	82.402711	-115.055010	
753	3.7650	580.553317	1235.631472	-220.361679	515.138138	1269.046160	-532.054486	525.053629	1295.316016	-381.566896	469.375679	1165.631870	-375.343435	550.297214	1009.053718	-71.555342	705.169299	883.803170	-123.312779	508.069911	994.948051	-620.679659	691.272818	890.022580	-530.583807	8.670628	1115.172355	-291.631813	120.407691	1134.054560	-443.818158	153.558363	1120.226171	-160.807307	163.822908	1105.728593	-424.319015	201.245390	1088.490128	-191.811349	42.457346	1166.472516	-240.192191	38.669835	1191.531832	-322.319083	119.689206	1020.054870	-125.206782	91.784680	1061.209752	-480.935580	196.270173	947.124687	-124.979343	261.031008	887.964913	-133.683430	292.732486	809.196629	-119.494198	285.089136	904.091198	-158.328139	338.954760	680.252363	-163.531585	318.640234	665.992683	-270.255170	303.983105	577.030406	-143.192032	283.709348	491.202724	-159.630056	230.761463	424.484215	-150.548715	294.502895	488.250466	-197.376814	165.433982	321.797821	-151.262311	179.730854	334.126050	-232.892902	81.509077	318.777798	-194.144846	307.053956	139.697026	-189.985980	211.415691	193.929454	-134.992295	242.908227	185.447268	-239.946669	222.026634	1019.452306	-500.859307	305.331292	1006.781912	-498.684505	318.754574	1036.096225	-479.742492	374.587478	951.271082	-506.590955	468.650006	905.813235	-493.615493	481.105541	878.368535	-382.675586	444.216498	808.546056	-507.871199	421.326050	726.698051	-490.920990	358.519014	661.741120	-493.810959	440.323125	719.649472	-455.330247	287.909718	570.179801	-478.657538	306.080148	566.761005	-400.513270	213.964244	523.568084	-441.869415	497.895104	480.480790	-443.966541	391.068033	468.921366	-507.233588	-164.932969	857.180166	-317.418774	32.836886	82.761753	-515.272777	32.981069	82.368000	-115.087851	
754	3.7700	580.638876	1234.423810	-221.910947	513.249822	1267.627058	-533.443380	524.144026	1294.204284	-383.162378	467.866143	1164.827512	-376.290610	549.930762	1008.689800	-72.125664	704.875290	883.608362	-123.222403	506.304035	993.062068	-620.605586	690.520595	889.889982	-530.462210	8.090861	1114.609277	-291.186052	120.256623	1133.019797	-443.372898	152.600586	1119.976380	-160.192830	163.849560	1105.099729	-423.989768	199.963713	1087.891683	-191.125685	41.795191	1166.279617	-239.679924	38.405392	1190.818313	-322.041439	119.307829	1019.821971	-124.520394	91.952501	1060.106852	-479.962688	197.067668	947.905171	-125.174857	262.771712	889.813404	-133.862520	295.553837	811.432118	-120.317239	286.666816	906.462889	-158.337091	343.081597	682.867152	-164.299847	322.177285	668.985321	-271.224725	306.167709	579.825169	-144.271836	283.513658	494.632960	-160.745987	228.792514	429.261312	-151.359254	294.029133	491.282274	-198.546901	160.475082	328.292905	-151.641902	175.334542	340.218053	-233.416753	76.612049	326.504498	-194.791135	299.272665	143.893696	-189.801876	204.372906	199.755354	-135.222225	236.523710	190.329231	-239.980994	219.068557	1015.278831	-496.051145	304.879232	1002.492452	-498.901834	318.921220	1031.579153	-479.931815	373.262216	945.701719	-506.711990	465.934400	897.709729	-493.621740	479.093971	871.068021	-383.468302	442.895492	799.773533	-508.541575	421.355590	717.626206	-490.722987	359.752333	651.606143	-493.306162	440.317200	711.324230	-455.019148	290.530357	559.878279	-477.340086	309.369081	556.652782	-399.240014	218.268504	510.354256	-439.721336	503.550868	477.491954	-445.786472	396.209029	462.234415	-507.638684	-165.013395	857.046493	-317.647861	32.828514	82.567211	-515.307836	32.966209	82.327093	-115.130877	
